# xmcd
#
# Track frame offsets:
# 150
# 18109
# 32426
# 48765
# 65460
# 88969
# 107933
# 127403
# 147125
# 164142
# 179443
# 194399
#
# Disc length: 2795 seconds
#
#
# Revision: 2
# Processed by: cddbd v1.5.1PL0 Copyright (c) Steve Scherf et al.
# Submitted via: FreeRIP 2.941 
#
DISCID=ac0ae90c
DTITLE=Calcinha Preta - Mágica Vol.12 - Calcinha Preta - Mágica Vol.12
DYEAR=2004
DGENRE=Forró
TTITLE0=manchete dos jornais
TTITLE1=a calcinha preta e nossa
TTITLE2=renascera
TTITLE3=perdoar
TTITLE4=o navio e o mar
TTITLE5=ainda te amo
TTITLE6=magica
TTITLE7=sai solidão
TTITLE8=segredo
TTITLE9=so tenho olhos pra voce
TTITLE10=abra o meu coraçao
TTITLE11=declaraçao de amor
EXTD=YEAR: 2004
EXTT0=
EXTT1=
EXTT2=
EXTT3=
EXTT4=
EXTT5=
EXTT6=
EXTT7=
EXTT8=
EXTT9=
EXTT10=
EXTT11=
PLAYORDER=
